<svg xmlns="http://www.w3.org/2000/svg" xmlns:xlink="http://www.w3.org/1999/xlink" viewBox="0 0 826 871.97"><defs><style>.cls-1{fill:none;}.cls-2{fill:#00a289;}.cls-3{clip-path:url(#clip-path);}.cls-4{fill:#f68b1f;}.cls-5{fill:#b72467;}.cls-6{fill:#ed1c24;}.cls-7{fill:#f15a22;}.cls-8{fill:#00a651;}.cls-9{fill:#0098a0;}.cls-10{fill:#00addc;}</style><clipPath id="clip-path"><circle class="cls-1" cx="412.23" cy="414.53" r="376.22"/></clipPath></defs><g id="Layer_2" data-name="Layer 2"><g id="Layer_1-2" data-name="Layer 1"><circle class="cls-2" cx="413" cy="413" r="413"/><g class="cls-3"><path class="cls-4" d="M591.38,356.45A188,188,0,0,0,233.7,472.14l.15.47-.15.06V872H412.23V602.45H413a188,188,0,0,0,178.38-246ZM413,415.06l-.38-.53-.39.53v-.53H413Z"/><path class="cls-5" d="M412.62,113.86v37.59a262,262,0,0,0-154.68,50.19l-22.09-30.41A299.4,299.4,0,0,1,412.62,113.86Z"/><path class="cls-6" d="M675.7,414.53a263.24,263.24,0,0,1-12.8,81.32l-35.75-11.61a226.75,226.75,0,0,0,0-139.41l35.76-11.62A263.29,263.29,0,0,1,675.7,414.53Z"/><path class="cls-6" d="M187.11,414.53a225.57,225.57,0,0,0,11,69.71l-35.76,11.61a264.62,264.62,0,0,1,0-162.64l35.76,11.62A225.75,225.75,0,0,0,187.11,414.53Z"/><path class="cls-6" d="M412.62,151.45a262,262,0,0,1,154.67,50.19l-22.1,30.41a225.77,225.77,0,0,0-265.15,0l-22.1-30.42A262,262,0,0,1,412.62,151.45Z"/><path class="cls-7" d="M638.12,414.53A225,225,0,0,1,545.19,597L523.1,566.59a187.86,187.86,0,1,0-289.4-94.45v.53l-35.6,11.57a225.56,225.56,0,1,1,440-69.71Z"/><circle class="cls-8" cx="412.23" cy="415.3" r="150.95"/><circle class="cls-9" cx="412.23" cy="415.3" r="118.77"/><circle class="cls-10" cx="412.23" cy="415.3" r="65.9"/></g></g></g></svg>