<svg xmlns="http://www.w3.org/2000/svg" xmlns:xlink="http://www.w3.org/1999/xlink" viewBox="0 0 1414 1103"><defs><style>.cls-1{fill:none;}.cls-2{fill:#7c7c7c;}.cls-3{fill:#d19b61;}.cls-4{fill:#ad9b5b;}.cls-5{fill:#889b55;}.cls-6{clip-path:url(#clip-path);}.cls-7{fill:#389b48;}.cls-8{fill:#729b52;}.cls-9{fill:#559b4d;}.cls-10{fill:#479b4a;}.cls-11{fill:#3f9b49;}.cls-12{fill:#399299;}.cls-13{fill:#ca9b60;}.cls-14{fill:#c29b5f;}.cls-15{fill:#bb9b5d;}.cls-16{fill:#b49b5c;}.cls-17{fill:#a59b5a;}.cls-18{fill:#9e9b59;}.cls-19{fill:#979b57;}.cls-20{fill:#8f9b56;}.cls-21{fill:#819b54;}.cls-22{fill:#7a9b53;}.cls-23{fill:#6b9b50;}.cls-24{fill:#649b4f;}.cls-25{fill:#5c9b4e;}.cls-26{fill:#4e9b4c;}</style><clipPath id="clip-path" transform="translate(432 15)"><circle class="cls-1" cx="491" cy="491" r="491"/></clipPath></defs><g id="Layer_2" data-name="Layer 2"><g id="Layer_1-2" data-name="Layer 1"><path class="cls-2" d="M203.13,887.91,232,848.22A442,442,0,0,1,71.52,627.46L24.85,642.62A491.13,491.13,0,0,0,203.13,887.91Z" transform="translate(432 15)"/><path class="cls-2" d="M24.87,339.38l46.67,15.17A442,442,0,0,1,232,133.78L203.13,94.09A491.09,491.09,0,0,0,24.87,339.38Z" transform="translate(432 15)"/><path class="cls-2" d="M203.13,94.09,232,133.78A439.51,439.51,0,0,1,491.5,49.55V.5A488.43,488.43,0,0,0,203.13,94.09Z" transform="translate(432 15)"/><path class="cls-2" d="M491.5.5V49.55A439.6,439.6,0,0,1,751,133.78l28.84-39.69A488.43,488.43,0,0,0,491.5.5Z" transform="translate(432 15)"/><path class="cls-2" d="M779.87,94.09,751,133.78A442,442,0,0,1,911.48,354.54l46.67-15.16A491.13,491.13,0,0,0,779.87,94.09Z" transform="translate(432 15)"/><path class="cls-2" d="M982,491a490.66,490.66,0,0,0-23.85-151.62l-46.67,15.16a444.17,444.17,0,0,1,0,272.91l46.67,15.17A491,491,0,0,0,982,491Z" transform="translate(432 15)"/><path class="cls-2" d="M958.13,642.62l-46.67-15.17A442,442,0,0,1,751,848.22l28.84,39.69A491.09,491.09,0,0,0,958.13,642.62Z" transform="translate(432 15)"/><path class="cls-2" d="M491.5,932.45v49a488.43,488.43,0,0,0,288.37-93.59L751,848.22A439.51,439.51,0,0,1,491.5,932.45Z" transform="translate(432 15)"/><path class="cls-2" d="M1,491A490.66,490.66,0,0,0,24.85,642.62l46.67-15.16a444.17,444.17,0,0,1,0-272.91L24.87,339.38A491,491,0,0,0,1,491Z" transform="translate(432 15)"/><path class="cls-2" d="M232,848.22l-28.84,39.69A488.43,488.43,0,0,0,491.5,981.5v-49A439.6,439.6,0,0,1,232,848.22Z" transform="translate(432 15)"/><path class="cls-2" d="M260.8,808.53,232,848.22A439.6,439.6,0,0,0,491.5,932.45V883.4A390.85,390.85,0,0,1,260.8,808.53Z" transform="translate(432 15)"/><path class="cls-2" d="M232,848.22l28.83-39.69A392.89,392.89,0,0,1,118.18,612.3L71.52,627.46A442,442,0,0,0,232,848.22Z" transform="translate(432 15)"/><path class="cls-2" d="M50.05,491A441.67,441.67,0,0,0,71.52,627.46l46.66-15.16a394.89,394.89,0,0,1,0-242.59L71.54,354.55A441.62,441.62,0,0,0,50.05,491Z" transform="translate(432 15)"/><path class="cls-2" d="M71.54,354.55l46.66,15.16A392.88,392.88,0,0,1,260.8,173.47L232,133.78A442,442,0,0,0,71.54,354.55Z" transform="translate(432 15)"/><path class="cls-2" d="M232,133.78l28.83,39.69A390.73,390.73,0,0,1,491.5,98.6v-49A439.51,439.51,0,0,0,232,133.78Z" transform="translate(432 15)"/><path class="cls-2" d="M491.5,49.55V98.6a390.85,390.85,0,0,1,230.7,74.87L751,133.78A439.6,439.6,0,0,0,491.5,49.55Z" transform="translate(432 15)"/><path class="cls-2" d="M933,491a441.67,441.67,0,0,0-21.47-136.46L864.82,369.7a394.89,394.89,0,0,1,0,242.59l46.66,15.16A441.62,441.62,0,0,0,933,491Z" transform="translate(432 15)"/><path class="cls-2" d="M911.46,627.45,864.8,612.29A392.88,392.88,0,0,1,722.2,808.53L751,848.22A442,442,0,0,0,911.46,627.45Z" transform="translate(432 15)"/><path class="cls-2" d="M491.5,883.4v49.05A439.51,439.51,0,0,0,751,848.22L722.2,808.53A390.73,390.73,0,0,1,491.5,883.4Z" transform="translate(432 15)"/><path class="cls-2" d="M751,133.78,722.2,173.47A392.89,392.89,0,0,1,864.82,369.7l46.66-15.16A442,442,0,0,0,751,133.78Z" transform="translate(432 15)"/><path class="cls-2" d="M260.8,808.53l28.84-39.69A343.79,343.79,0,0,1,164.87,597.13L118.18,612.3A392.89,392.89,0,0,0,260.8,808.53Z" transform="translate(432 15)"/><path class="cls-2" d="M99.1,491a392.68,392.68,0,0,0,19.08,121.3l46.69-15.17a345.29,345.29,0,0,1,0-212.26L118.2,369.71A392.62,392.62,0,0,0,99.1,491Z" transform="translate(432 15)"/><path class="cls-2" d="M118.2,369.71l46.66,15.16A343.77,343.77,0,0,1,289.64,213.16L260.8,173.47A392.88,392.88,0,0,0,118.2,369.71Z" transform="translate(432 15)"/><path class="cls-2" d="M491.5,98.6v49.05a341.93,341.93,0,0,1,201.86,65.51l28.84-39.69A390.85,390.85,0,0,0,491.5,98.6Z" transform="translate(432 15)"/><path class="cls-2" d="M722.2,173.47l-28.84,39.69A343.79,343.79,0,0,1,818.13,384.87l46.69-15.17A392.89,392.89,0,0,0,722.2,173.47Z" transform="translate(432 15)"/><path class="cls-2" d="M883.9,491a392.68,392.68,0,0,0-19.08-121.3l-46.69,15.17a345.29,345.29,0,0,1,0,212.26l46.66,15.16A392.62,392.62,0,0,0,883.9,491Z" transform="translate(432 15)"/><path class="cls-3" d="M491.5,834.35v49a390.73,390.73,0,0,0,230.7-74.87l-28.84-39.69A341.93,341.93,0,0,1,491.5,834.35Z" transform="translate(432 15)"/><path class="cls-2" d="M864.8,612.29l-46.66-15.16A343.77,343.77,0,0,1,693.36,768.84l28.84,39.69A392.88,392.88,0,0,0,864.8,612.29Z" transform="translate(432 15)"/><path class="cls-3" d="M289.64,768.84,260.8,808.53A390.85,390.85,0,0,0,491.5,883.4v-49A341.93,341.93,0,0,1,289.64,768.84Z" transform="translate(432 15)"/><path class="cls-2" d="M289.64,768.84l28.84-39.69A294.61,294.61,0,0,1,211.54,582l-46.67,15.16A343.79,343.79,0,0,0,289.64,768.84Z" transform="translate(432 15)"/><path class="cls-4" d="M164.86,384.87,211.52,400a294.59,294.59,0,0,1,107-147.17l-28.84-39.7A343.77,343.77,0,0,0,164.86,384.87Z" transform="translate(432 15)"/><path class="cls-2" d="M693.36,213.16l-28.84,39.69A294.61,294.61,0,0,1,771.46,400l46.67-15.16A343.79,343.79,0,0,0,693.36,213.16Z" transform="translate(432 15)"/><path class="cls-4" d="M491.5,785.3v49.05a341.93,341.93,0,0,0,201.86-65.51l-28.84-39.7A293,293,0,0,1,491.5,785.3Z" transform="translate(432 15)"/><path class="cls-2" d="M818.14,597.13,771.48,582a294.59,294.59,0,0,1-107,147.17l28.84,39.7A343.77,343.77,0,0,0,818.14,597.13Z" transform="translate(432 15)"/><path class="cls-4" d="M318.48,729.15l-28.84,39.69A341.93,341.93,0,0,0,491.5,834.35V785.3A293.1,293.1,0,0,1,318.48,729.15Z" transform="translate(432 15)"/><path class="cls-5" d="M318.48,729.15l28.83-39.7A245.45,245.45,0,0,1,258.2,566.8L211.54,582A294.61,294.61,0,0,0,318.48,729.15Z" transform="translate(432 15)"/><path class="cls-5" d="M635.69,689.45a244.17,244.17,0,0,1-144.19,46.8v49a293,293,0,0,0,173-56.16Z" transform="translate(432 15)"/><path class="cls-5" d="M347.31,689.45l-28.83,39.7a293.1,293.1,0,0,0,173,56.15v-49A244.24,244.24,0,0,1,347.31,689.45Z" transform="translate(432 15)"/><g class="cls-6"><rect class="cls-7" x="690" y="506" width="233" height="597"/><path class="cls-3" d="M260.8,173.47l28.84,39.69A341.93,341.93,0,0,1,491.5,147.65V98.6A390.73,390.73,0,0,0,260.8,173.47Z" transform="translate(432 15)"/><path class="cls-4" d="M211.52,400l-46.66-15.16a345.29,345.29,0,0,0,0,212.26L211.54,582a295.91,295.91,0,0,1,0-181.94Z" transform="translate(432 15)"/><path class="cls-4" d="M289.64,213.16l28.84,39.7a293,293,0,0,1,173-56.16v-49A341.93,341.93,0,0,0,289.64,213.16Z" transform="translate(432 15)"/><path class="cls-4" d="M491.5,147.65v49a293.1,293.1,0,0,1,173,56.15l28.84-39.69A341.93,341.93,0,0,0,491.5,147.65Z" transform="translate(432 15)"/><path class="cls-5" d="M818.13,384.87,771.46,400a295.91,295.91,0,0,1,0,181.94l46.66,15.16a345.29,345.29,0,0,0,0-212.26Z" transform="translate(432 15)"/><path class="cls-5" d="M258.19,415.19,211.52,400a295.91,295.91,0,0,0,0,181.94L258.2,566.8a246.51,246.51,0,0,1,0-151.61Z" transform="translate(432 15)"/><path class="cls-5" d="M211.52,400l46.67,15.16a245.55,245.55,0,0,1,89.12-122.64l-28.83-39.69A294.59,294.59,0,0,0,211.52,400Z" transform="translate(432 15)"/><path class="cls-5" d="M318.48,252.86l28.83,39.69a244.17,244.17,0,0,1,144.19-46.8V196.7A293,293,0,0,0,318.48,252.86Z" transform="translate(432 15)"/><path class="cls-5" d="M491.5,196.7v49.05a244.24,244.24,0,0,1,144.19,46.8l28.83-39.7A293.1,293.1,0,0,0,491.5,196.7Z" transform="translate(432 15)"/><path class="cls-5" d="M664.52,252.85l-28.83,39.7A245.41,245.41,0,0,1,724.8,415.2L771.46,400A294.61,294.61,0,0,0,664.52,252.85Z" transform="translate(432 15)"/><path class="cls-5" d="M771.48,582l-46.67-15.16a245.55,245.55,0,0,1-89.12,122.64l28.83,39.69A294.59,294.59,0,0,0,771.48,582Z" transform="translate(432 15)"/><path class="cls-5" d="M724.81,566.81,771.48,582a295.91,295.91,0,0,0,0-181.94L724.8,415.2a246.51,246.51,0,0,1,0,151.61Z" transform="translate(432 15)"/><path class="cls-8" d="M347.31,689.45a244.24,244.24,0,0,0,144.19,46.8v-49a195.36,195.36,0,0,1-115.35-37.44Z" transform="translate(432 15)"/><path class="cls-8" d="M347.31,689.45l28.84-39.69a196.4,196.4,0,0,1-71.29-98.12L258.2,566.8A245.45,245.45,0,0,0,347.31,689.45Z" transform="translate(432 15)"/><path class="cls-8" d="M304.85,430.35l-46.66-15.16a246.51,246.51,0,0,0,0,151.61l46.66-15.16a197.23,197.23,0,0,1,0-121.29Z" transform="translate(432 15)"/><path class="cls-8" d="M258.19,415.19l46.66,15.16a196.38,196.38,0,0,1,71.31-98.1l-28.85-39.7A245.55,245.55,0,0,0,258.19,415.19Z" transform="translate(432 15)"/><path class="cls-8" d="M347.31,292.55l28.85,39.7A195.31,195.31,0,0,1,491.5,294.8V245.75A244.17,244.17,0,0,0,347.31,292.55Z" transform="translate(432 15)"/><path class="cls-8" d="M635.69,292.55a244.24,244.24,0,0,0-144.19-46.8V294.8a195.36,195.36,0,0,1,115.35,37.44Z" transform="translate(432 15)"/><path class="cls-8" d="M635.69,292.55l-28.84,39.69a196.4,196.4,0,0,1,71.29,98.12L724.8,415.2A245.41,245.41,0,0,0,635.69,292.55Z" transform="translate(432 15)"/><path class="cls-8" d="M678.15,551.65l46.66,15.16a246.51,246.51,0,0,0,0-151.61l-46.66,15.16a197.23,197.23,0,0,1,0,121.29Z" transform="translate(432 15)"/><path class="cls-8" d="M724.81,566.81l-46.66-15.16a196.38,196.38,0,0,1-71.31,98.1l28.85,39.7A245.55,245.55,0,0,0,724.81,566.81Z" transform="translate(432 15)"/><path class="cls-8" d="M606.84,649.75A195.31,195.31,0,0,1,491.5,687.2v49a244.17,244.17,0,0,0,144.19-46.8Z" transform="translate(432 15)"/><path class="cls-9" d="M376.15,649.76A195.36,195.36,0,0,0,491.5,687.2V638.15A146.51,146.51,0,0,1,405,610.07Z" transform="translate(432 15)"/><path class="cls-9" d="M351.51,445.52l-46.66-15.17a197.23,197.23,0,0,0,0,121.29l46.66-15.16a147.93,147.93,0,0,1,0-91Z" transform="translate(432 15)"/><path class="cls-9" d="M304.85,430.35l46.66,15.17A147.34,147.34,0,0,1,405,371.94l-28.83-39.69A196.38,196.38,0,0,0,304.85,430.35Z" transform="translate(432 15)"/><path class="cls-9" d="M376.16,332.25,405,371.94a146.54,146.54,0,0,1,86.51-28.09V294.8A195.31,195.31,0,0,0,376.16,332.25Z" transform="translate(432 15)"/><path class="cls-9" d="M606.85,332.24A195.36,195.36,0,0,0,491.5,294.8v49.05A146.51,146.51,0,0,1,578,371.93Z" transform="translate(432 15)"/><path class="cls-9" d="M606.85,332.24,578,371.93a147.29,147.29,0,0,1,53.47,73.59l46.66-15.16A196.4,196.4,0,0,0,606.85,332.24Z" transform="translate(432 15)"/><path class="cls-9" d="M631.49,536.48l46.66,15.17a197.23,197.23,0,0,0,0-121.29l-46.66,15.16a147.93,147.93,0,0,1,0,91Z" transform="translate(432 15)"/><path class="cls-9" d="M678.15,551.65l-46.66-15.17A147.34,147.34,0,0,1,578,610.06l28.83,39.69A196.38,196.38,0,0,0,678.15,551.65Z" transform="translate(432 15)"/><path class="cls-9" d="M578,610.06a146.54,146.54,0,0,1-86.51,28.09V687.2a195.31,195.31,0,0,0,115.34-37.45Z" transform="translate(432 15)"/><path class="cls-9" d="M376.15,649.76,405,610.07a147.29,147.29,0,0,1-53.47-73.59l-46.66,15.16A196.4,196.4,0,0,0,376.15,649.76Z" transform="translate(432 15)"/><path class="cls-10" d="M405,610.07a146.51,146.51,0,0,0,86.51,28.08v-49a97.71,97.71,0,0,1-57.67-18.73Z" transform="translate(432 15)"/><path class="cls-9" d="M351.51,445.52a147.93,147.93,0,0,0,0,91l46.66-15.16a98.45,98.45,0,0,1,0-60.64Z" transform="translate(432 15)"/><path class="cls-9" d="M351.51,445.52l46.68,15.16a98.24,98.24,0,0,1,35.64-49.05L405,371.94A147.34,147.34,0,0,0,351.51,445.52Z" transform="translate(432 15)"/><path class="cls-9" d="M405,371.94l28.84,39.69A97.62,97.62,0,0,1,491.5,392.9v-49A146.54,146.54,0,0,0,405,371.94Z" transform="translate(432 15)"/><path class="cls-10" d="M578,371.93a146.51,146.51,0,0,0-86.51-28.08v49a97.71,97.71,0,0,1,57.67,18.73Z" transform="translate(432 15)"/><path class="cls-9" d="M631.49,536.48a147.93,147.93,0,0,0,0-91l-46.66,15.16a98.45,98.45,0,0,1,0,60.64Z" transform="translate(432 15)"/><path class="cls-9" d="M631.49,536.48l-46.68-15.16a98.24,98.24,0,0,1-35.64,49L578,610.06A147.34,147.34,0,0,0,631.49,536.48Z" transform="translate(432 15)"/><path class="cls-10" d="M549.17,570.37A97.62,97.62,0,0,1,491.5,589.1v49A146.54,146.54,0,0,0,578,610.06Z" transform="translate(432 15)"/><path class="cls-10" d="M578,371.93l-28.84,39.7a98.26,98.26,0,0,1,35.65,49.05l46.66-15.16A147.29,147.29,0,0,0,578,371.93Z" transform="translate(432 15)"/><path class="cls-10" d="M405,610.07l28.84-39.7a98.26,98.26,0,0,1-35.65-49l-46.66,15.16A147.29,147.29,0,0,0,405,610.07Z" transform="translate(432 15)"/><path class="cls-11" d="M433.83,570.37A97.71,97.71,0,0,0,491.5,589.1V540.05a48.81,48.81,0,0,1-28.83-9.37Z" transform="translate(432 15)"/><path class="cls-11" d="M398.19,460.68l46.65,15.16a49.1,49.1,0,0,1,17.83-24.52l-28.84-39.69A98.24,98.24,0,0,0,398.19,460.68Z" transform="translate(432 15)"/><path class="cls-11" d="M433.83,411.63l28.84,39.69A48.81,48.81,0,0,1,491.5,442V392.9A97.62,97.62,0,0,0,433.83,411.63Z" transform="translate(432 15)"/><path class="cls-11" d="M549.17,411.63A97.71,97.71,0,0,0,491.5,392.9V442a48.81,48.81,0,0,1,28.83,9.37Z" transform="translate(432 15)"/><path class="cls-11" d="M549.17,411.63l-28.84,39.69a49.08,49.08,0,0,1,17.82,24.52l46.67-15.16A98.26,98.26,0,0,0,549.17,411.63Z" transform="translate(432 15)"/><path class="cls-11" d="M538.16,506.16l46.65,15.16a98.45,98.45,0,0,0,0-60.64l-46.67,15.16a49.18,49.18,0,0,1,0,30.32Z" transform="translate(432 15)"/><path class="cls-11" d="M584.81,521.32l-46.65-15.16a49.1,49.1,0,0,1-17.83,24.52l28.84,39.69A98.24,98.24,0,0,0,584.81,521.32Z" transform="translate(432 15)"/><path class="cls-11" d="M520.33,530.68a48.81,48.81,0,0,1-28.83,9.37V589.1a97.62,97.62,0,0,0,57.67-18.73Z" transform="translate(432 15)"/><path class="cls-11" d="M444.84,475.84l-46.65-15.16a98.45,98.45,0,0,0,0,60.64l46.67-15.16a49.18,49.18,0,0,1,0-30.32Z" transform="translate(432 15)"/><path class="cls-11" d="M433.83,570.37l28.84-39.69a49.08,49.08,0,0,1-17.82-24.52l-46.67,15.16A98.26,98.26,0,0,0,433.83,570.37Z" transform="translate(432 15)"/><path class="cls-12" d="M462.67,530.68a48.81,48.81,0,0,0,28.83,9.37V491Z" transform="translate(432 15)"/><path class="cls-12" d="M462.67,530.68,491.5,491l-46.65,15.16A49.08,49.08,0,0,0,462.67,530.68Z" transform="translate(432 15)"/><path class="cls-12" d="M462.67,451.32,491.5,491V442A48.81,48.81,0,0,0,462.67,451.32Z" transform="translate(432 15)"/><path class="cls-12" d="M491.5,442V491l28.83-39.68A48.81,48.81,0,0,0,491.5,442Z" transform="translate(432 15)"/><path class="cls-12" d="M520.33,451.32,491.5,491l46.65-15.16A49.08,49.08,0,0,0,520.33,451.32Z" transform="translate(432 15)"/><path class="cls-12" d="M538.16,506.16,491.5,491l28.83,39.68A49.1,49.1,0,0,0,538.16,506.16Z" transform="translate(432 15)"/><path class="cls-12" d="M491.5,491v49a48.81,48.81,0,0,0,28.83-9.37Z" transform="translate(432 15)"/><path class="cls-12" d="M540.55,491a49,49,0,0,0-2.4-15.16L491.5,491l46.66,15.16A49.3,49.3,0,0,0,540.55,491Z" transform="translate(432 15)"/><path class="cls-12" d="M444.84,475.84,491.5,491l-28.83-39.68A49.1,49.1,0,0,0,444.84,475.84Z" transform="translate(432 15)"/><path class="cls-12" d="M442.45,491a49,49,0,0,0,2.4,15.16L491.5,491l-46.66-15.16A49.3,49.3,0,0,0,442.45,491Z" transform="translate(432 15)"/><rect class="cls-3" width="214" height="30"/><rect class="cls-13" y="45.86" width="215.43" height="30.19"/><rect class="cls-14" y="91.71" width="216.86" height="30.38"/><rect class="cls-15" y="137.57" width="218.29" height="30.57"/><rect class="cls-16" y="183.43" width="219.71" height="30.76"/><rect class="cls-4" y="229.29" width="221.14" height="30.95"/><rect class="cls-17" y="275.14" width="222.57" height="31.14"/><rect class="cls-18" y="321" width="224" height="31.33"/><rect class="cls-19" y="366.86" width="225.43" height="31.52"/><rect class="cls-20" y="412.71" width="226.86" height="31.71"/><rect class="cls-5" y="458.57" width="228.29" height="31.9"/><rect class="cls-21" y="504.43" width="229.71" height="32.1"/><rect class="cls-22" y="550.29" width="231.14" height="32.29"/><rect class="cls-8" y="596.14" width="232.57" height="32.48"/><rect class="cls-23" y="642" width="234" height="32.67"/><rect class="cls-24" y="687.86" width="235.43" height="32.86"/><rect class="cls-25" y="733.71" width="236.86" height="33.05"/><rect class="cls-9" y="779.57" width="238.29" height="33.24"/><rect class="cls-26" y="825.43" width="239.71" height="33.43"/><rect class="cls-10" y="871.29" width="241.14" height="33.62"/><rect class="cls-11" y="917.14" width="242.57" height="33.81"/><rect class="cls-7" y="963" width="244" height="34"/></g></g></g></svg>